<?xml version="1.0" standalone="no"?>
<!DOCTYPE svg PUBLIC "-//W3C//DTD SVG 20010904//EN"
 "http://www.w3.org/TR/2001/REC-SVG-20010904/DTD/svg10.dtd">
<svg version="1.0" xmlns="http://www.w3.org/2000/svg"
 width="1280.000000pt" height="640.000000pt" viewBox="0 0 1280.000000 640.000000"
 preserveAspectRatio="xMidYMid meet">
<metadata>
Created by potrace 1.15, written by Peter Selinger 2001-2017
</metadata>
<g transform="translate(0.000000,640.000000) scale(0.100000,-0.100000)"
fill="#000000" stroke="none">
<path d="M2282 4994 c-790 -96 -1446 -660 -1621 -1394 -71 -302 -59 -629 36
-925 193 -604 704 -1068 1348 -1226 257 -63 -25 -59 4337 -59 4298 0 4070 -3
4298 51 1071 250 1696 1288 1378 2289 -217 685 -864 1188 -1630 1270 -66 7
-1390 10 -4065 9 -3292 -1 -3987 -3 -4081 -15z"/>
</g>
</svg>
